<svg width="248" height="248" viewBox="0 0 248 248" fill="none" xmlns="http://www.w3.org/2000/svg">
<g filter="url(#filter0_d_0_39)">
<circle cx="124" cy="120" r="120" fill="black"/>
<path d="M57.4786 67H193.479V169H57.4786V67Z" stroke="white" stroke-width="6"/>
<path d="M72.6331 101.25C70.0664 101.25 67.7497 100.75 65.6831 99.75C63.6164 98.75 61.8331 97.4 60.3331 95.7C58.8331 93.9667 57.6664 92.0333 56.8331 89.9C56.0331 87.7333 55.6331 85.5167 55.6331 83.25C55.6331 80.8833 56.0664 78.6333 56.9331 76.5C57.7998 74.3333 58.9998 72.4167 60.5331 70.75C62.0664 69.05 63.8664 67.7167 65.9331 66.75C68.0331 65.75 70.2997 65.25 72.7331 65.25C75.2664 65.25 77.5664 65.7667 79.6331 66.8C81.7331 67.8333 83.5164 69.2167 84.9831 70.95C86.4831 72.6833 87.6331 74.6167 88.4331 76.75C89.2664 78.8833 89.6831 81.0667 89.6831 83.3C89.6831 85.6667 89.2497 87.9333 88.3831 90.1C87.5497 92.2333 86.3664 94.15 84.8331 95.85C83.2997 97.5167 81.4831 98.8333 79.3831 99.8C77.3164 100.767 75.0664 101.25 72.6331 101.25ZM61.3331 83.25C61.3331 84.9167 61.5997 86.5333 62.1331 88.1C62.6664 89.6667 63.4164 91.0667 64.3831 92.3C65.3831 93.5 66.5831 94.45 67.9831 95.15C69.3831 95.85 70.9497 96.2 72.6831 96.2C74.4831 96.2 76.0831 95.8333 77.4831 95.1C78.8831 94.3667 80.0497 93.3833 80.9831 92.15C81.9497 90.8833 82.6831 89.4833 83.1831 87.95C83.6831 86.3833 83.9331 84.8167 83.9331 83.25C83.9331 81.5833 83.6664 79.9833 83.1331 78.45C82.6331 76.8833 81.8831 75.5 80.8831 74.3C79.8831 73.0667 78.6831 72.1 77.2831 71.4C75.9164 70.7 74.3831 70.35 72.6831 70.35C70.8831 70.35 69.2831 70.7167 67.8831 71.45C66.4831 72.1833 65.2997 73.1667 64.3331 74.4C63.3664 75.6333 62.6164 77.0167 62.0831 78.55C61.5831 80.0833 61.3331 81.65 61.3331 83.25ZM140.631 65.5V101H134.981V85.35H117.081V101H111.481V65.5H117.081V80.35H134.981V65.5H140.631ZM179.389 101.25C176.823 101.25 174.506 100.75 172.439 99.75C170.373 98.75 168.589 97.4 167.089 95.7C165.589 93.9667 164.423 92.0333 163.589 89.9C162.789 87.7333 162.389 85.5167 162.389 83.25C162.389 80.8833 162.823 78.6333 163.689 76.5C164.556 74.3333 165.756 72.4167 167.289 70.75C168.823 69.05 170.623 67.7167 172.689 66.75C174.789 65.75 177.056 65.25 179.489 65.25C182.023 65.25 184.323 65.7667 186.389 66.8C188.489 67.8333 190.273 69.2167 191.739 70.95C193.239 72.6833 194.389 74.6167 195.189 76.75C196.023 78.8833 196.439 81.0667 196.439 83.3C196.439 85.6667 196.006 87.9333 195.139 90.1C194.306 92.2333 193.123 94.15 191.589 95.85C190.056 97.5167 188.239 98.8333 186.139 99.8C184.073 100.767 181.823 101.25 179.389 101.25ZM168.089 83.25C168.089 84.9167 168.356 86.5333 168.889 88.1C169.423 89.6667 170.173 91.0667 171.139 92.3C172.139 93.5 173.339 94.45 174.739 95.15C176.139 95.85 177.706 96.2 179.439 96.2C181.239 96.2 182.839 95.8333 184.239 95.1C185.639 94.3667 186.806 93.3833 187.739 92.15C188.706 90.8833 189.439 89.4833 189.939 87.95C190.439 86.3833 190.689 84.8167 190.689 83.25C190.689 81.5833 190.423 79.9833 189.889 78.45C189.389 76.8833 188.639 75.5 187.639 74.3C186.639 73.0667 185.439 72.1 184.039 71.4C182.673 70.7 181.139 70.35 179.439 70.35C177.639 70.35 176.039 70.7167 174.639 71.45C173.239 72.1833 172.056 73.1667 171.089 74.4C170.123 75.6333 169.373 77.0167 168.839 78.55C168.339 80.0833 168.089 81.65 168.089 83.25ZM84.1936 105.45H72.3936V136H66.7436V105.45H54.8937V100.5H84.1936V105.45ZM118.804 131.05V136H94.4542V100.5H118.354V105.45H100.054V115.55H115.904V120.2H100.054V131.05H118.804ZM130.131 136V100.5H155.082V105.4H135.731V115.35H146.131C150.065 115.35 153.015 116.283 154.982 118.15C156.948 119.983 157.932 122.417 157.932 125.45C157.932 127.483 157.498 129.3 156.632 130.9C155.798 132.467 154.532 133.717 152.832 134.65C151.165 135.55 149.048 136 146.481 136H130.131ZM135.731 131.1H145.731C147.265 131.1 148.498 130.817 149.431 130.25C150.398 129.683 151.082 128.967 151.482 128.1C151.915 127.2 152.132 126.267 152.132 125.3C152.132 124.333 151.948 123.433 151.582 122.6C151.215 121.767 150.548 121.1 149.581 120.6C148.648 120.067 147.331 119.8 145.631 119.8H135.731V131.1ZM193.037 131.05V136H168.687V100.5H192.587V105.45H174.287V115.55H190.137V120.2H174.287V131.05H193.037ZM84.069 135.5V171H78.419V155.35H60.519V171H54.9191V135.5H60.519V150.35H78.419V135.5H84.069ZM103.327 135.5H108.627L122.427 171H116.527L112.777 161.35H99.0772L95.3772 171H89.4272L103.327 135.5ZM111.677 157.2L105.977 141.65L100.077 157.2H111.677ZM122.218 177.8V166.05H123.918C124.851 166.05 125.651 165.683 126.318 164.95C127.018 164.217 127.601 163.05 128.068 161.45C128.568 159.85 128.951 157.75 129.218 155.15C129.518 152.517 129.734 149.3 129.868 145.5L130.118 135.5H152.968V166.05H157.468V177.8H152.518V171H127.168V177.8H122.218ZM131.018 166.05H147.318V140.45H135.318L135.168 146.25C135.068 150.083 134.868 153.333 134.568 156C134.268 158.633 133.834 160.767 133.268 162.4C132.701 164.033 131.951 165.25 131.018 166.05ZM179.191 171.25C176.624 171.25 174.308 170.75 172.241 169.75C170.174 168.75 168.391 167.4 166.891 165.7C165.391 163.967 164.224 162.033 163.391 159.9C162.591 157.733 162.191 155.517 162.191 153.25C162.191 150.883 162.624 148.633 163.491 146.5C164.358 144.333 165.558 142.417 167.091 140.75C168.624 139.05 170.424 137.717 172.491 136.75C174.591 135.75 176.858 135.25 179.291 135.25C181.824 135.25 184.124 135.767 186.191 136.8C188.291 137.833 190.074 139.217 191.541 140.95C193.041 142.683 194.191 144.617 194.991 146.75C195.824 148.883 196.241 151.067 196.241 153.3C196.241 155.667 195.808 157.933 194.941 160.1C194.108 162.233 192.924 164.15 191.391 165.85C189.858 167.517 188.041 168.833 185.941 169.8C183.874 170.767 181.624 171.25 179.191 171.25ZM167.891 153.25C167.891 154.917 168.158 156.533 168.691 158.1C169.224 159.667 169.974 161.067 170.941 162.3C171.941 163.5 173.141 164.45 174.541 165.15C175.941 165.85 177.508 166.2 179.241 166.2C181.041 166.2 182.641 165.833 184.041 165.1C185.441 164.367 186.608 163.383 187.541 162.15C188.508 160.883 189.241 159.483 189.741 157.95C190.241 156.383 190.491 154.817 190.491 153.25C190.491 151.583 190.224 149.983 189.691 148.45C189.191 146.883 188.441 145.5 187.441 144.3C186.441 143.067 185.241 142.1 183.841 141.4C182.474 140.7 180.941 140.35 179.241 140.35C177.441 140.35 175.841 140.717 174.441 141.45C173.041 142.183 171.858 143.167 170.891 144.4C169.924 145.633 169.174 147.017 168.641 148.55C168.141 150.083 167.891 151.65 167.891 153.25Z" fill="white"/>
</g>
<defs>
<filter id="filter0_d_0_39" x="0" y="0" width="248" height="248" filterUnits="userSpaceOnUse" color-interpolation-filters="sRGB">
<feFlood flood-opacity="0" result="BackgroundImageFix"/>
<feColorMatrix in="SourceAlpha" type="matrix" values="0 0 0 0 0 0 0 0 0 0 0 0 0 0 0 0 0 0 127 0" result="hardAlpha"/>
<feOffset dy="4"/>
<feGaussianBlur stdDeviation="2"/>
<feComposite in2="hardAlpha" operator="out"/>
<feColorMatrix type="matrix" values="0 0 0 0 0 0 0 0 0 0 0 0 0 0 0 0 0 0 0.25 0"/>
<feBlend mode="normal" in2="BackgroundImageFix" result="effect1_dropShadow_0_39"/>
<feBlend mode="normal" in="SourceGraphic" in2="effect1_dropShadow_0_39" result="shape"/>
</filter>
</defs>
</svg>
